<?xml version="1.0" encoding="UTF-8"?>
<svg version="1.1" xmlns="http://www.w3.org/2000/svg" width="243" height="92">
<path d="M0 0 C6 0 6 0 8.3359375 1.75 C9.00882813 2.4925 9.68171875 3.235 10.375 4 C11.06335938 4.7425 11.75171875 5.485 12.4609375 6.25 C12.96882813 6.8275 13.47671875 7.405 14 8 C14.763125 7.236875 15.52625 6.47375 16.3125 5.6875 C17.199375 4.800625 18.08625 3.91375 19 3 C19.45375 2.401875 19.9075 1.80375 20.375 1.1875 C22 0 22 0 29 0 C29 9.57 29 19.14 29 29 C26.69 29 24.38 29 22 29 C21.67 23.72 21.34 18.44 21 13 C19.02 14.98 17.04 16.96 15 19 C11.90837736 17.61410019 10.50816459 16.50816459 8 14 C7.67 18.95 7.34 23.9 7 29 C4.69 29 2.38 29 0 29 C0 19.43 0 9.86 0 0 Z " fill="#000000" transform="translate(78,25)"/>
<path d="M0 0 C6 0 6 0 8.3359375 1.75 C9.00882813 2.4925 9.68171875 3.235 10.375 4 C11.06335937 4.7425 11.75171875 5.485 12.4609375 6.25 C12.96882813 6.8275 13.47671875 7.405 14 8 C14.763125 7.236875 15.52625 6.47375 16.3125 5.6875 C17.199375 4.800625 18.08625 3.91375 19 3 C19.45375 2.401875 19.9075 1.80375 20.375 1.1875 C22 0 22 0 29 0 C29 9.57 29 19.14 29 29 C26.69 29 24.38 29 22 29 C21.67 23.72 21.34 18.44 21 13 C19.02 14.98 17.04 16.96 15 19 C11.90837736 17.61410019 10.50816459 16.50816459 8 14 C7.67 18.95 7.34 23.9 7 29 C4.69 29 2.38 29 0 29 C0 19.43 0 9.86 0 0 Z " fill="#000000" transform="translate(11,25)"/>
<path d="M0 0 C4.33926423 2.25379888 7.03555416 4.77604757 9.0625 9.31640625 C9.96885468 14.5060177 10.32664503 19.1985529 7.55859375 23.8359375 C4.56214932 27.30780944 2.20514912 30.02632452 -2.4765625 30.66015625 C-8.34075365 30.95707732 -12.07953975 30.91765278 -16.625 26.94140625 C-20.39020992 23.15280993 -21.12369134 20.91125679 -21.25 15.56640625 C-21.20588585 10.30421804 -20.61585982 7.30129606 -16.9375 3.31640625 C-12.12309203 -0.91443711 -6.10323112 -2.15335776 0 0 Z M-12.4375 9.44140625 C-14.21551176 12.84926212 -14.64710213 14.53186157 -13.9375 18.31640625 C-11.48155875 21.63915029 -10.0118356 23.09258633 -5.9375 23.94140625 C-1.8631644 23.09258633 -0.39344125 21.63915029 2.0625 18.31640625 C2.77210213 14.53186157 2.34051176 12.84926212 0.5625 9.44140625 C-2.46665683 6.86662294 -4.14400771 6.57094781 -8.03125 6.83203125 C-10.21774045 7.23877825 -10.21774045 7.23877825 -12.4375 9.44140625 Z " fill="#000000" transform="translate(213.9375,23.68359375)"/>
<path d="M0 0 C4.33926423 2.25379888 7.03555416 4.77604757 9.0625 9.31640625 C9.96885468 14.5060177 10.32664503 19.1985529 7.55859375 23.8359375 C4.56214932 27.30780944 2.20514912 30.02632452 -2.4765625 30.66015625 C-8.34075365 30.95707732 -12.07953975 30.91765278 -16.625 26.94140625 C-20.39020992 23.15280993 -21.12369134 20.91125679 -21.25 15.56640625 C-21.20588585 10.30421804 -20.61585982 7.30129606 -16.9375 3.31640625 C-12.12309203 -0.91443711 -6.10323112 -2.15335776 0 0 Z M-12.4375 9.44140625 C-14.21551176 12.84926212 -14.64710213 14.53186157 -13.9375 18.31640625 C-11.48155875 21.63915029 -10.0118356 23.09258633 -5.9375 23.94140625 C-1.8631644 23.09258633 -0.39344125 21.63915029 2.0625 18.31640625 C2.77210213 14.53186157 2.34051176 12.84926212 0.5625 9.44140625 C-2.46665683 6.86662294 -4.14400771 6.57094781 -8.03125 6.83203125 C-10.21774045 7.23877825 -10.21774045 7.23877825 -12.4375 9.44140625 Z " fill="#000000" transform="translate(65.9375,23.68359375)"/>
<path d="M0 0 C1.98 0 3.96 0 6 0 C7.95927722 2.01320228 9.3527001 3.70101648 10.875 6 C11.2771875 6.57234375 11.679375 7.1446875 12.09375 7.734375 C13.0804061 9.14388371 14.04268106 10.57040372 15 12 C15.33 8.04 15.66 4.08 16 0 C18.31 0 20.62 0 23 0 C23 9.57 23 19.14 23 29 C21.02 29 19.04 29 17 29 C15.03474425 26.81237587 13.63224623 24.96593685 12.125 22.5 C11.7228125 21.87996094 11.320625 21.25992188 10.90625 20.62109375 C9.91868699 19.09272242 8.95676686 17.54783616 8 16 C7.67 20.29 7.34 24.58 7 29 C4.69 29 2.38 29 0 29 C0 19.43 0 9.86 0 0 Z " fill="#000000" transform="translate(139,25)"/>
<path d="M0 0 C6.93 0 13.86 0 21 0 C21 2.31 21 4.62 21 7 C16.38 7 11.76 7 7 7 C7 8.32 7 9.64 7 11 C9.64 11 12.28 11 15 11 C15 13.31 15 15.62 15 18 C12.36 18 9.72 18 7 18 C7 19.32 7 20.64 7 22 C11.62 22 16.24 22 21 22 C21 24.31 21 26.62 21 29 C14.07 29 7.14 29 0 29 C0 19.43 0 9.86 0 0 Z " fill="#000000" transform="translate(113,25)"/>
<path d="M0 0 C7.59 0 15.18 0 23 0 C23 2.31 23 4.62 23 7 C20.36 7 17.72 7 15 7 C15 14.26 15 21.52 15 29 C12.69 29 10.38 29 8 29 C8 21.74 8 14.48 8 7 C5.36 7 2.72 7 0 7 C0 4.69 0 2.38 0 0 Z " fill="#000000" transform="translate(167,25)"/>
<path d="M0 0 C3 0.125 3 0.125 4 1.125 C4.125 4.125 4.125 4.125 4 7.125 C3 8.125 3 8.125 0 8.25 C-3 8.125 -3 8.125 -4 7.125 C-4.125 4.125 -4.125 4.125 -4 1.125 C-3 0.125 -3 0.125 0 0 Z " fill="#000000" transform="translate(208,34.875)"/>
<path d="M0 0 C3 0.125 3 0.125 4 1.125 C4.125 4.125 4.125 4.125 4 7.125 C3 8.125 3 8.125 0 8.25 C-3 8.125 -3 8.125 -4 7.125 C-4.125 4.125 -4.125 4.125 -4 1.125 C-3 0.125 -3 0.125 0 0 Z " fill="#000000" transform="translate(60,34.875)"/>
</svg>
